<svg fill="none" height="348" viewBox="0 0 344.833 48.255" width="2500" xmlns="http://www.w3.org/2000/svg"><path d="m202.294 46.482h-.574v-46.482h.574zm-135.386-22.452c0 .01-.003.02-.004.03-.022.278-.059.554-.098.83-.736 4.745-3.96 9.167-9.278 12.633-6.15 4.007-14.356 6.254-23.105 6.327l-.433.002c-17.844 0-32.366-9.196-32.462-20.624-.003-.365.017-.76.054-1.204.325.076 1.538.354 1.812.413 8.234 1.759 11.32 3.618 12.086 4.16-.137.386-.205.79-.203 1.202a3.53 3.53 0 0 0 4 3.464c.342 1.316 1.262 2.314 2.61 2.825.41.153.824.23 1.228.23.208.003.442-.02.658-.064.286.605.881 1.366 2.117 1.857.467.184.92.262 1.381.271.306-.002.607-.048.897-.138a4.101 4.101 0 0 0 3.71 2.344h.035a4.134 4.134 0 0 0 2.827-1.161c.716.373 1.971.899 3.279.91.182-.002.355-.015.527-.037 1.408-.19 2.07-.759 2.376-1.201l.07-.104c.247.062.578.116.958.123.779-.008 1.516-.276 2.254-.824.67-.492 1.162-1.184 1.298-1.8.179.025.369.03.545.037.796-.007 1.572-.26 2.305-.751 1.281-.856 1.617-1.933 1.646-2.763.173.023.344.036.516.032.746-.006 1.475-.237 2.166-.684.896-.584 1.43-1.472 1.504-2.5a3.357 3.357 0 0 0 -.381-1.793c2.679-1.158 7.598-2.909 13.086-4.214.029.364.061.728.061 1.097 0 .36-.014.72-.042 1.075zm-41.852 8.077a.608.608 0 0 0 -.275-.137c-.133-.027-.284.019-.45.14-.36.257-.825.552-1.215.556a1.998 1.998 0 0 1 -.647-.121c-1.989-.754-1.807-2.517-1.744-2.909.016-.123.045-.352-.153-.474-.224-.136-.43.068-.566.202-.37.318-.705.432-1.158.378-1.088-.117-1.914-.958-1.922-1.956a1.87 1.87 0 0 1 .548-1.34c.35-.354.817-.55 1.312-.55 1.057 0 1.7.46 1.908 1.367.007.033.012.072.018.112.022.16.05.378.244.44.22.067.351-.14.438-.275.023-.035.045-.07.067-.097l.063-.078c.388-.473.754-.922 2.128-.931.264.004.554.04.844.126.764.227 1.193.88 1.276 1.948.03.326.257.472.457.472h.009c.209-.002.345-.146.39-.193.31-.33.796-.768 1.443-.773.355-.001.701.075 1.07.23 1.792.753.982 3.062.975 3.08-.108.272-.287.726.094.97l.078.036.148.02c.116 0 .23-.04.402-.1l.053-.02c.251-.087.63-.221.967-.223 1.362.005 2.48 1.103 2.49 2.449a2.471 2.471 0 0 1 -2.448 2.483h-.019a2.445 2.445 0 0 1 -2.46-2.328c-.025-.562-.324-.648-.502-.648h-.006c-.192.002-.336.111-.464.23-.3.282-.649.543-1.165.548-.234.007-.507-.055-.788-.166-1.368-.541-1.382-1.562-1.325-1.975.013-.1.047-.331-.115-.493zm-16.515-21.94-.002.006c4.333 1.73 9.353 2.959 10.904 3.045l.343.023c.347.024.708.04 1.068.047 1.078-.008 2.14-.314 3.191-.617.419-.121.834-.24 1.26-.346l-.06.062-2.864 3.15c-.255.261-.808.967-.426 1.832.149.341.44.662.846.93.725.48 2.003.8 3.195.787a5.64 5.64 0 0 0 1.272-.144c1.25-.29 2.525-1.32 3.898-2.429 1.049-.85 2.538-1.929 3.674-2.25.315-.086.697-.142.994-.145.086 0 .166 0 .246.012.742.09 1.462.337 2.764 1.299 2.269 1.674 11.957 9.995 13.076 10.956.006.005.603.525.57 1.372-.018.467-.279.886-.733 1.182-.413.267-.839.405-1.266.409h-.014c-.631 0-1.068-.295-1.07-.295-.015-.011-.112-.099-.27-.24-.894-.801-3.613-3.239-4.736-4.163-.242-.2-.487-.396-.758-.376a.552.552 0 0 0 -.439.21c-.248.312-.116.758.323 1.126l4.25 4.2c.006.004.47.437.524.992.034.63-.258 1.143-.893 1.566-.458.309-.92.467-1.373.471h-.016c-.557 0-.957-.243-1.04-.296l-.65-.63c-1.1-1.063-2.236-2.162-3.071-2.848-.234-.19-.487-.369-.76-.369h-.005a.579.579 0 0 0 -.42.188c-.12.136-.267.432.072.873.103.136.224.25.226.25l3.096 3.418c.121.15.484.676.074 1.208l-.096.126c-.086.095-.179.184-.263.259-.469.391-1.11.437-1.365.438-.142-.005-.264-.008-.378-.029-.348-.06-.453-.145-.489-.186l-.097-.101c-1.293-1.328-2.22-2.143-2.776-2.599-.183-.15-.433-.357-.722-.357h-.005a.573.573 0 0 0 -.43.196c-.26.29-.145.714.295 1.122l2.334 2.597c-.004.008-.01.016-.017.025-.06.086-.323.374-1.21.493a2.401 2.401 0 0 1 -.347.02c-.835 0-1.727-.36-2.274-.629.199-.493.301-1.03.296-1.565a4.088 4.088 0 0 0 -1.229-2.902 4.087 4.087 0 0 0 -2.84-1.184c.027-1.104-.26-2.84-2.15-3.631a4.337 4.337 0 0 0 -1.69-.363h-.028c-.381.003-.75.063-1.1.179-.432-.734-1.105-1.268-1.954-1.55-.497-.167-.99-.267-1.472-.246a3.881 3.881 0 0 0 -2.141.648 3.49 3.49 0 0 0 -2.59-1.15h-.029a3.557 3.557 0 0 0 -2.342.922c-.99-.699-4.324-2.645-12.68-4.468-.379-.083-1.199-.31-1.887-.502.8-3.65 3.099-7.112 6.676-10.03zm25.533-8.11.43-.001c4.66 0 9.194.636 13.336 1.825.096.029.193.055.289.084.197.058.39.122.585.183 3.817 1.213 7.2 2.895 9.996 4.916-2.765 1.176-5.347 1.766-7.875 1.787l-.126.001c-2.666 0-5.334-.63-7.935-1.871-.14-.066-3.467-1.603-6.955-1.603h-.092l-.278.005c-4.114.133-6.417 1.599-7.963 2.88-1.494.06-2.78.43-3.937.763-1.005.289-1.873.537-2.708.544a78.94 78.94 0 0 1 -.936-.02l-.114-.004c-.936-.022-5.71-1.142-9.671-2.573 6.151-4.32 14.85-6.84 23.954-6.916zm32.554 17.971c-6.764 1.584-11.963 3.764-14.012 4.691-3.239-2.78-10.722-9.176-12.752-10.672-1.19-.88-2.004-1.343-2.72-1.549-.33-.096-.783-.217-1.36-.199a5.616 5.616 0 0 0 -1.708.302c-1.343.436-2.654 1.495-3.926 2.524l-.076.061c-1.145.925-2.329 1.883-3.196 2.084a5.42 5.42 0 0 1 -1.18.142h-.036c-.913 0-1.753-.248-2.08-.614a.811.811 0 0 1 .092-.144l2.819-3.09c2.182-2.22 4.244-4.314 9.012-4.463.078-.003.157-.005.235-.006 2.971-.047 5.97 1.29 6.299 1.437 2.872 1.373 5.857 2.045 8.802 2.035 3.047-.026 6.13-.78 9.417-2.3 3.318 2.79 5.576 6.124 6.37 9.761zm1.86 2.652c-.103-12.275-15.308-22.15-33.99-22.15l-.443.001c-6.334.053-12.398 1.227-17.667 3.372-9.448 3.777-15.868 10.471-16.347 18.145-.015.212-.018.425-.025.638-.001.093-.01.186-.01.28v.1c0 .062-.006.124-.006.185l.003.558-.001.463c0 .044.004.088.004.131v.156c.002.174.015.345.021.518.007.157.009.315.02.47.37 6.112 3.682 11.665 9.42 15.723 6.233 4.407 14.68 6.73 24.46 6.73.173 0 .348 0 .522-.002 10.05-.084 18.665-2.554 24.915-7.143 5.945-4.365 9.189-10.355 9.134-16.866zm113.814-6.256c-.602.797-1.462 1.198-2.587 1.198-1.122 0-1.987-.4-2.593-1.198s-.908-1.933-.908-3.404c0-1.47.302-2.603.908-3.397.606-.793 1.471-1.191 2.593-1.191 1.125 0 1.985.398 2.587 1.19.6.795.902 1.928.902 3.398s-.302 2.607-.902 3.404zm3.07-8.908c-1.239-1.553-3.12-2.33-5.645-2.33-2.522 0-4.403.777-5.642 2.33-1.241 1.552-1.861 3.387-1.861 5.504 0 2.154.62 3.994 1.861 5.527 1.239 1.527 3.12 2.293 5.642 2.293 2.525 0 4.406-.766 5.645-2.293 1.24-1.533 1.859-3.373 1.859-5.527 0-2.117-.619-3.952-1.859-5.504zm-33.625 7.095c-.026 1.287-.395 2.175-1.103 2.662-.71.487-1.484.73-2.324.73-.532 0-.982-.148-1.353-.44-.371-.293-.555-.769-.555-1.427 0-.736.302-1.282.909-1.634.359-.207.948-.384 1.771-.524l.878-.163c.436-.083.78-.172 1.032-.267.254-.091.498-.214.745-.37zm1.953-8.394c-1.256-.637-2.695-.957-4.314-.957-2.489 0-4.244.648-5.267 1.944-.643.83-1.004 1.889-1.088 3.177h3.719c.091-.57.273-1.02.548-1.352.382-.45 1.035-.675 1.957-.675.823 0 1.445.113 1.872.345.422.228.635.646.635 1.249 0 .497-.276.858-.829 1.095-.309.136-.823.247-1.541.338l-1.318.161c-1.497.19-2.634.506-3.403.948-1.407.811-2.109 2.121-2.109 3.932 0 1.394.434 2.473 1.31 3.235.873.762 1.983 1.08 3.324 1.143 8.407.377 8.312-4.43 8.388-5.429v-5.53c0-1.775-.629-2.984-1.884-3.624zm-19.169 2.336c.961 0 1.666.297 2.123.89.312.438.508.933.584 1.483h4.146c-.227-2.093-.959-3.553-2.195-4.38-1.24-.824-2.829-1.239-4.77-1.239-2.284 0-4.077.701-5.374 2.102-1.298 1.403-1.948 3.362-1.948 5.88 0 2.23.588 4.049 1.763 5.45 1.175 1.4 3.009 2.102 5.499 2.102 2.495 0 4.377-.84 5.646-2.52.795-1.041 1.242-2.146 1.335-3.314h-4.132c-.085.773-.325 1.402-.726 1.888-.398.48-1.071.726-2.021.726-1.338 0-2.25-.61-2.733-1.834-.266-.653-.401-1.516-.401-2.593 0-1.126.135-2.03.401-2.716.503-1.281 1.439-1.925 2.803-1.925zm-8.68.661c.189.01.402.025.649.056v-3.933c-.172-.013-.284-.017-.332-.022a2.113 2.113 0 0 0 -.182-.008c-8.519 0-8.015 7.542-8.015 7.542v7.66h3.866v-7.184c0-1.179.15-2.05.443-2.617.531-1.005 1.568-1.51 3.114-1.51.116 0 .269.008.457.016zm-19.26.096c.543-.559 1.307-.84 2.292-.84.906 0 1.665.264 2.279.794.61.527.951 1.3 1.021 2.318h-6.615c.138-.956.482-1.712 1.023-2.273zm-2.742 9.761c1.493 1.204 3.219 1.808 5.172 1.808 2.367 0 4.209-.715 5.523-2.144.711-.75 1.154-1.494 1.343-2.228h-4.101c-.162.232-.336.43-.528.584-.547.449-1.287.586-2.161.586-.825 0-1.473-.124-2.057-.492-.964-.594-1.508-1.596-1.567-3.068h10.697c.014-1.27-.026-2.24-.129-2.916-.177-1.15-.569-2.164-1.168-3.036-.669-.99-1.517-1.713-2.539-2.173-1.024-.457-2.174-.686-3.451-.686-2.154 0-3.902.678-5.252 2.034-1.348 1.359-2.025 3.307-2.025 5.852 0 2.716.748 4.675 2.243 5.879zm-7.325-7.453v8.89h3.53v-8.806c0-3.785-2.272-6.445-6.128-6.445-1.794 0-3.346.786-4.388 2.046-.992-1.26-2.516-2.046-4.391-2.046-3.775 0-6.211 2.773-6.211 6.445v8.807h3.533v-8.891c0-1.625 1.098-2.745 2.678-2.745 2.328 0 2.57 1.932 2.57 2.745v8.89h3.533v-8.89c0-1.625 1.124-2.745 2.676-2.745 2.33 0 2.598 1.932 2.598 2.745zm69.914 4.838c-.564.808-1.393 1.212-2.478 1.212-1.089 0-1.897-.408-2.431-1.22-.534-.814-.8-1.998-.8-3.353 0-1.258.26-2.31.786-3.159.525-.848 1.348-1.274 2.471-1.274.737 0 1.383.233 1.941.7.906.772 1.361 2.16 1.361 3.954 0 1.283-.285 2.331-.85 3.14zm.744-13.08-.005 4.142a4.628 4.628 0 0 0 -1.682-1.625c-.689-.389-1.48-.586-2.372-.586-1.931 0-3.47.72-4.624 2.154-1.156 1.439-1.732 3.51-1.732 6.015 0 2.175.586 3.957 1.759 5.344 1.172 1.385 3.469 1.993 5.511 1.993 7.118 0 7.035-6.102 7.035-6.102l.002-14.046s-3.892-.417-3.892 2.711zm-78.759 34.064c-.568.787-1.345 1.178-2.329 1.178-1.06 0-1.876-.391-2.442-1.178-.57-.711-.852-1.771-.852-3.195 0-1.53.264-2.653.793-3.364.57-.783 1.366-1.178 2.388-1.178 1.06 0 1.874.395 2.442 1.178.57.786.853 1.905.853 3.364 0 1.349-.283 2.41-.853 3.195zm-1.319-11.022c-3.183-.15-4.791.608-5.84 1.408-1.447 1.104-2.328 2.74-2.328 5.351v13.43h1.872c.502 0 1.002-.174 1.372-.514.413-.382.62-.847.62-1.392v-5.019c.455.786 1.057 1.365 1.817 1.738.72.336 1.552.505 2.5.505 1.778 0 3.24-.71 4.375-2.131 1.135-1.46 1.703-3.362 1.703-5.718 0-2.283-.538-4.032-1.826-5.6-1.043-1.269-2.623-1.984-4.265-2.058zm31.586 9.146c-.151.875-.391 1.521-.727 1.93-.706.969-1.805 1.313-3.29 1.037-1.489-.282-2.234-1.71-2.234-4.285 0-1.196.221-2.261.671-3.196.447-.93 1.302-1.398 2.566-1.398.93 0 1.638.337 2.12 1.008.484.672.793 1.437.922 2.299.13.858.119 1.727-.028 2.605zm1.618-7.76c-1.314-.996-2.656-1.517-4.965-1.456-2.343.064-4.048.72-5.108 2.156-1.059 1.437-1.589 3.315-1.589 5.627 0 1.98.4 3.575 1.198 4.794.8 1.211 1.759 2.042 2.877 2.488a5.519 5.519 0 0 0 3.373.283c1.135-.263 2.038-.913 2.707-1.959v.949c-.076 1.196-.363 2.092-.863 2.691-.506.594-1.063.96-1.678 1.091a2.869 2.869 0 0 1 -1.837-.225c-.616-.278-1.071-.68-1.368-1.201h-4.073c1.055 3.17 2.949 4.57 6.361 4.817 5.504.396 7.258-4.264 7.253-6.778v-7.901c0-2.612-.851-4.285-2.288-5.377zm-16.921 8c-.024 1.29-.393 2.174-1.101 2.661a4.013 4.013 0 0 1 -2.323.73c-.532 0-.983-.148-1.354-.44-.37-.291-.556-.768-.556-1.426 0-.736.305-1.282.91-1.634.361-.207.949-.384 1.77-.524l.879-.163a6.369 6.369 0 0 0 1.029-.266c.255-.092.501-.215.746-.37zm1.954-8.392c-1.257-.634-2.695-.957-4.314-.957-2.489 0-4.242.648-5.265 1.945-.641.828-1.003 1.887-1.087 3.175h3.719c.09-.569.273-1.019.546-1.35.384-.45 1.037-.677 1.957-.677.825 0 1.447.113 1.872.346.422.229.635.645.635 1.25 0 .495-.276.859-.829 1.094-.309.134-.822.246-1.54.338l-1.317.16c-1.496.19-2.635.507-3.402.947-1.409.811-2.11 2.121-2.11 3.93 0 1.396.434 2.475 1.31 3.235.872.763 1.982 1.081 3.324 1.144 8.402.376 8.308-4.43 8.384-5.428v-5.53c0-1.773-.626-2.98-1.883-3.622zm28.801 10.122c-.601.798-1.462 1.198-2.584 1.198-1.123 0-1.988-.4-2.592-1.198-.609-.796-.911-1.93-.911-3.401 0-1.47.302-2.602.911-3.395.604-.794 1.469-1.19 2.592-1.19 1.122 0 1.983.396 2.584 1.19.601.793.901 1.926.901 3.395 0 1.47-.3 2.604-.901 3.4zm-2.574-11.232c-2.52 0-4.401.775-5.64 2.33-1.241 1.551-1.861 3.385-1.861 5.5 0 2.154.62 3.994 1.861 5.527 1.239 1.526 3.12 2.291 5.64 2.291 2.524 0 4.404-.765 5.645-2.292 1.238-1.532 1.856-3.372 1.856-5.525 0-2.116-.618-3.95-1.856-5.502-1.241-1.554-3.121-2.33-5.645-2.33zm83.56-9.288h8.788v2.327h-6.144v2.626h6.014v2.327h-6.014v5.14h-2.644zm13.053 0h2.644v12.42h-2.644zm10.166 4.32v8.1h-2.644v-12.42h2.719l5.753 7.802v-7.802h2.644v12.42h-2.551zm16.553 3.668h3.873l-1.936-5.344zm4.599 2.327h-5.324l-.783 2.104h-3.017l4.805-12.419h3.314l4.785 12.42h-3.017zm9.999-5.995v8.1h-2.644v-12.42h2.718l5.754 7.802v-7.802h2.644v12.42h-2.551zm12.754 1.899c0-3.817 2.886-6.424 6.61-6.424 2.737 0 4.32 1.49 5.195 3.036l-2.271 1.117c-.522-1.006-1.639-1.807-2.924-1.807-2.253 0-3.891 1.732-3.891 4.078s1.638 4.078 3.891 4.078c1.285 0 2.402-.782 2.924-1.806l2.271 1.098c-.893 1.545-2.458 3.054-5.195 3.054-3.724 0-6.61-2.607-6.61-6.424zm15.809-6.219h2.643v12.42h-2.643zm7.522 0h8.787v2.327h-6.144v2.626h6.015v2.327h-6.015v2.812h6.144v2.327h-8.787zm18.694 2.327h-2.775v3.352h2.775c1.06 0 1.861-.632 1.861-1.675s-.801-1.676-1.861-1.676zm-.838 5.68h-1.937v4.412h-2.644v-12.419h5.809c2.589 0 4.171 1.695 4.171 4.003 0 2.198-1.378 3.37-2.718 3.687l2.792 4.73h-3.035zm13.015-.019h3.873l-1.936-5.344zm4.599 2.327h-5.325l-.782 2.104h-3.017l4.804-12.419h3.315l4.785 12.42h-3.017z" fill="#040606"/></svg>